<svg width="298" height="82" viewBox="0 0 298 82" fill="none" xmlns="http://www.w3.org/2000/svg">
<path d="M42.9999 81.6002C40.7999 81.6002 38.5999 80.6002 37.0999 78.9002L32.2999 73.4002L9.29991 77.9002C6.59991 78.4002 3.79991 77.5002 1.99991 75.4002C0.199914 73.3002 -0.400086 70.5002 0.499914 67.8002L10.9999 37.1002C11.8999 34.4002 14.1999 32.4002 16.9999 32.0002L24.8999 30.6002L33.1999 5.80024C34.0999 3.10024 36.2999 1.20024 38.9999 0.700236C41.7999 0.000236243 44.5999 1.00024 46.3999 3.10024L67.4999 27.3002C69.2999 29.4002 69.8999 32.2002 68.9999 34.8002L65.6999 44.7002L80.8999 62.0002C82.6999 64.1002 83.2999 66.9002 82.3999 69.6002C81.4999 72.2002 79.3999 74.2002 76.5999 74.7002L44.5999 81.4002C44.0999 81.5002 43.5999 81.6002 42.9999 81.6002ZM35.5999 68.5002L41.3999 75.2002C41.8999 75.8002 42.7999 76.1002 43.5999 75.9002L75.5999 69.2002C76.6999 69.0002 77.1999 68.1002 77.2999 67.7002C77.3999 67.3002 77.5999 66.4002 76.8999 65.5002L63.8999 50.7002L60.6999 60.2002C59.8999 62.5002 57.9999 64.2002 55.6999 64.7002C53.2999 65.2002 50.8999 64.4002 49.2999 62.6002L40.3999 52.6002L27.0999 55.3002C26.4999 55.4002 26.2999 55.9002 26.1999 56.1002C26.0999 56.4002 25.9999 56.8002 26.3999 57.3002L35.5999 68.5002ZM27.4999 35.7002L17.9999 37.4002C17.1999 37.5002 16.4999 38.1002 16.2999 38.9002L5.79991 69.5002C5.39991 70.6002 5.99991 71.4002 6.19991 71.7002C6.49991 72.0002 7.19991 72.7002 8.29991 72.4002L28.1999 68.5002L21.9999 61.0002C20.3999 59.2002 19.9999 56.7002 20.7999 54.4002C21.5999 52.1002 23.4999 50.5002 25.7999 50.0002L38.9999 47.4002L43.1999 34.8002C43.3999 34.2002 43.0999 33.8002 42.9999 33.6002C42.8999 33.4002 42.3999 33.1002 41.7999 33.2002L27.4999 35.7002ZM59.9999 44.6002L63.7999 33.2002C63.9999 32.4002 63.8999 31.6002 63.3999 31.0002L42.2999 6.70024C41.4999 5.80024 40.4999 5.90024 40.1999 6.00024C39.7999 6.10024 38.8999 6.40024 38.4999 7.50024L31.1999 29.5002L40.9999 27.7002C43.3999 27.3002 45.6999 28.1002 47.2999 29.9002C48.8999 31.7002 49.3999 34.2002 48.5999 36.5002L44.3999 49.1002L53.2999 59.1002C53.6999 59.6002 54.1999 59.5002 54.4999 59.5002C54.7999 59.4002 55.1999 59.3002 55.3999 58.7002L59.9999 44.6002Z" fill="url(#paint0_linear)"/>
<path d="M152.4 43.0002C152 41.5002 151.4 40.1002 150.5 38.9002C149.6 37.7002 148.5 36.7002 147.1 35.9002C145.7 35.1002 144.2 34.6002 142.5 34.4002C140.7 34.1002 138.9 34.2002 137.3 34.7002C135.6 35.1002 134.2 35.8002 132.8 36.8002C131.5 37.8002 130.4 39.2002 129.5 40.8002C128.6 42.4002 128.1 44.3002 127.8 46.5002C127.1 51.1002 127.9 54.8002 130.2 57.6002C132.5 60.4002 135.5 62.6002 141 62.6002C148 62.7002 151.1 57.8002 151.1 57.8002C152.8 55.3002 150.5 53.7002 150.5 53.7002C150.5 53.7002 147 58.9002 141.1 58.6002C135.5 58.4002 132.6 55.2002 132.3 50.0002H150.3C151 50.0002 151.6 49.9002 152 49.6002C152.4 49.3002 152.7 48.7002 152.8 47.8002C152.9 46.1002 152.8 44.5002 152.4 43.0002ZM148.4 46.4002L132.3 46.5002C132.8 43.5002 133.9 41.3002 135.6 39.9002C137.3 38.5002 139.4 37.9002 141.7 38.2002C144 38.5002 145.7 39.4002 146.8 41.0002C147.9 42.4002 148.4 44.2002 148.4 46.4002Z" fill="black"/>
<path d="M110.8 58.6001C113.4 58.6001 115.3 58.0001 116.7 56.9001C118.1 55.7001 118.7 54.2001 118.7 52.3001C118.7 50.7001 118.2 49.4001 117.1 48.4001C116.1 47.4001 114.5 46.6001 112.3 45.9001L107.3 44.4001C104.8 43.7001 103.9 42.6001 102.4 41.2001C101 39.6001 100.3 37.7001 100.3 35.3001C100.3 33.8001 100.6 32.5001 101.1 31.4001C101.7 30.2001 102.5 29.2001 103.5 28.4001C108 24.6001 114 25.6001 114 25.6001C118.5 26.1001 120 27.6001 121.3 28.6001C121.8 29.1001 122.1 29.7001 122.1 30.3001C122.1 30.8001 122 31.3001 121.7 31.7001C121.4 32.1001 121.1 32.4001 120.7 32.6001C117.5 30.3001 114 29.6001 112 29.6001C110 29.6001 108.2 30.2001 107 31.2001C105.8 32.2001 105 33.5001 105 35.3001C105 36.6001 105.5 37.7001 106.4 38.6001C107.3 39.5001 107.9 40.2001 110 40.8001L113.5 41.8001C116.6 42.7001 119 43.9001 120.7 45.6001C122.5 47.2001 123.4 49.4001 123.4 52.3001C123.4 55.4001 122.3 57.8001 120.1 59.7001C117.9 61.6001 114.8 62.5001 110.7 62.5001C108.9 62.5001 107.3 62.3001 105.8 62.0001C104.4 61.7001 103.1 61.3001 102.1 60.8001C101.1 60.3001 100.3 59.8001 99.7 59.2001C99.3 58.6001 99 58.0001 99 57.4001C99 56.7001 99.2 56.2001 99.6 55.8001C100 55.3001 100.5 55.0001 101.1 54.8001C101.5 55.2001 102 55.7001 102.7 56.1001C103.3 56.5001 104 56.9001 104.8 57.3001C105.6 57.6001 106.5 57.9001 107.5 58.2001C108.5 58.5001 109.6 58.6001 110.8 58.6001ZM175.3 59.0001C174.6 59.5001 173.7 60.0001 172.6 60.4001C171.5 60.8001 170.1 61.0001 168.5 61.0001C166.8 61.0001 165.2 60.8001 163.7 60.3001C162.2 59.8001 160.9 59.0001 159.7 58.0001C158.6 56.9001 157.7 55.5001 157 53.8001C156.3 52.1001 156 50.0001 156 47.6001C156 45.4001 156.3 43.5001 157 41.8001C157.7 40.1001 158.6 38.7001 159.7 37.6001C160.9 36.5001 162.3 35.6001 163.9 35.1001C165.5 34.5001 167.3 34.2001 169.3 34.2001C171.1 34.2001 172.7 34.4001 174.2 34.9001C175.7 35.3001 177 35.9001 178 36.5001C178.6 36.9001 179 37.3001 179.4 37.8001C179.8 38.3001 180 38.8001 180 39.5001V62.8001C180 64.7001 179.7 66.4001 179 67.7001C178.4 69.1001 177.5 70.1001 176.3 70.9001C175.2 71.8001 173.8 72.4001 172.3 72.8001C170.8 73.2001 169.1 73.4001 167.3 73.4001C165.3 73.4001 163.6 73.2001 162.3 72.8001C160.9 72.4001 160 72.1001 159.5 71.8001C158.3 71.1001 157.8 70.3001 157.8 69.3001C157.8 68.8001 157.9 68.3001 158.1 67.9001C158.4 67.6001 158.7 67.3001 159.1 67.1001C159.9 67.7001 161.1 68.3001 162.5 68.8001C164 69.3001 165.6 69.6001 167.3 69.6001C169.9 69.6001 171.9 69.0001 173.2 67.9001C174.6 66.8001 175.3 65.1001 175.3 62.6001V59.0001ZM169.1 57.1001C170.6 57.1001 171.9 56.9001 172.9 56.4001C173.9 55.9001 174.7 55.3001 175.4 54.7001V39.7001C174.7 39.3001 173.9 38.9001 172.9 38.6001C171.9 38.3001 170.8 38.1001 169.4 38.1001C166.8 38.1001 164.7 38.9001 163.1 40.5001C161.6 42.1001 160.8 44.4001 160.8 47.6001C160.8 49.3001 161 50.8001 161.4 52.1001C161.8 53.3001 162.4 54.3001 163.1 55.1001C163.9 55.9001 164.8 56.4001 165.8 56.8001C166.8 56.9001 167.9 57.1001 169.1 57.1001ZM220.8 43.6001C220.8 41.7001 220.3 40.3001 219.2 39.4001C218.1 38.5001 216.7 38.1001 214.8 38.1001C212.3 38.1001 210 39.0001 208.1 40.8001C208.3 41.6001 208.4 42.4001 208.4 43.3001V61.6001C208.2 61.7001 207.9 61.8001 207.5 61.8001C207.1 61.9001 206.7 62.0001 206.3 62.0001C204.6 62.0001 203.8 61.3001 203.8 59.9001V43.6001C203.8 41.7001 203.3 40.3001 202.2 39.4001C201.1 38.5001 199.6 38.1001 197.8 38.1001C196.6 38.1001 195.4 38.3001 194.3 38.7001C193.2 39.1001 192.3 39.5001 191.5 40.0001V61.6001C191.3 61.7001 191 61.8001 190.6 61.8001C190.2 61.9001 189.8 62.0001 189.3 62.0001C187.6 62.0001 186.8 61.3001 186.8 59.9001V40.2001C186.8 39.4001 187 38.8001 187.3 38.3001C187.6 37.8001 188.2 37.2001 189 36.7001C190 36.0001 191.4 35.5001 192.9 35.0001C194.5 34.5001 196.1 34.2001 197.8 34.2001C199.7 34.2001 201.4 34.5001 202.8 35.1001C204.3 35.6001 205.4 36.4001 206.2 37.4001C207.2 36.5001 208.5 35.8001 210 35.2001C211.5 34.6001 213.2 34.3001 215.2 34.3001C218.3 34.3001 220.8 35.1001 222.7 36.6001C224.6 38.1001 225.5 40.4001 225.5 43.4001V61.6001C225.3 61.7001 225 61.8001 224.6 61.8001C224.2 61.9001 223.8 62.0001 223.4 62.0001C221.7 62.0001 220.9 61.3001 220.9 59.9001V43.6001H220.8ZM237.4 61.6001C237.2 61.7001 236.9 61.8001 236.5 61.8001C236.1 61.9001 235.7 62.0001 235.2 62.0001C233.5 62.0001 232.7 61.3001 232.7 59.9001V35.1001C232.9 35.0001 233.2 34.9001 233.6 34.9001C234 34.8001 234.5 34.7001 234.9 34.7001C236.5 34.7001 237.3 35.4001 237.3 36.8001V61.6001H237.4ZM232 26.5001C232 25.7001 232.3 25.0001 232.8 24.5001C233.4 23.9001 234.1 23.6001 235 23.6001C235.9 23.6001 236.6 23.9001 237.1 24.5001C237.6 25.0001 237.9 25.7001 237.9 26.5001C237.9 27.3001 237.6 28.0001 237.1 28.6001C236.6 29.1001 235.8 29.4001 235 29.4001C234.1 29.4001 233.4 29.1001 232.8 28.6001C232.3 28.0001 232 27.3001 232 26.5001ZM263.2 44.3001C263.2 42.1001 262.6 40.5001 261.3 39.5001C260.1 38.5001 258.5 38.0001 256.4 38.0001C254.9 38.0001 253.5 38.2001 252.3 38.6001C251.1 39.0001 250.1 39.4001 249.2 39.9001V61.6001C249 61.7001 248.7 61.8001 248.3 61.8001C247.9 61.9001 247.5 62.0001 247 62.0001C245.3 62.0001 244.5 61.3001 244.5 59.9001V40.2001C244.5 39.4001 244.7 38.7001 245 38.2001C245.3 37.7001 245.9 37.1001 246.7 36.6001C247.7 36.0001 249 35.4001 250.7 34.9001C252.4 34.4001 254.2 34.1001 256.3 34.1001C259.8 34.1001 262.6 34.9001 264.6 36.5001C266.7 38.1001 267.7 40.6001 267.7 44.0001V61.6001C267.5 61.7001 267.2 61.8001 266.8 61.8001C266.4 61.9001 266 62.0001 265.6 62.0001C263.9 62.0001 263.1 61.3001 263.1 59.9001V44.3001H263.2ZM297.7 57.4001C297.7 58.2001 297.5 58.8001 297.2 59.2001C296.9 59.6001 296.4 60.1001 295.7 60.5001C294.9 61.0001 293.8 61.5001 292.4 61.9001C291 62.4001 289.3 62.6001 287.5 62.6001C285.4 62.6001 283.5 62.3001 281.8 61.8001C280.1 61.3001 278.6 60.4001 277.3 59.3001C276.1 58.1001 275.1 56.7001 274.4 54.9001C273.7 53.1001 273.4 51.0001 273.4 48.5001C273.4 46.0001 273.7 43.8001 274.4 42.1001C275.1 40.3001 276 38.8001 277.2 37.6001C278.4 36.4001 279.8 35.6001 281.4 35.0001C283 34.5001 284.7 34.2001 286.6 34.2001C287.8 34.2001 289 34.4001 290.2 34.7001C291.4 35.0001 292.4 35.4001 293.2 35.9001V24.2001C293.4 24.1001 293.7 24.0001 294.1 24.0001C294.5 23.9001 295 23.8001 295.4 23.8001C297.1 23.8001 297.9 24.5001 297.9 25.9001V57.4001H297.7ZM293.1 40.0001C292.3 39.5001 291.4 39.0001 290.4 38.6001C289.4 38.2001 288.2 38.0001 286.9 38.0001C285.7 38.0001 284.6 38.2001 283.5 38.6001C282.5 38.9001 281.5 39.5001 280.7 40.4001C279.9 41.2001 279.2 42.3001 278.7 43.6001C278.2 45.0001 278 46.6001 278 48.5001C278 52.1001 278.9 54.6001 280.6 56.2001C282.3 57.8001 284.6 58.6001 287.4 58.6001C288.8 58.6001 289.9 58.5001 290.7 58.2001C291.6 57.9001 292.4 57.5001 293.1 57.1001V40.0001Z" fill="black"/>
<defs>
<linearGradient id="paint0_linear" x1="41.4999" y1="-1.69526" x2="41.4999" y2="103.808" gradientUnits="userSpaceOnUse">
<stop stop-color="#FF6375"/>
<stop offset="1" stop-color="#7353F8"/>
</linearGradient>
</defs>
</svg>